<svg id="ejUEibJlDQ01" xmlns="http://www.w3.org/2000/svg" xmlns:xlink="http://www.w3.org/1999/xlink"
     viewBox="0 0 270 245" shape-rendering="geometricPrecision" text-rendering="geometricPrecision">
    <defs>
        <linearGradient id="ejUEibJlDQ05-fill" x1="0" y1="0" x2="1" y2="1" spreadMethod="pad"
                        gradientUnits="objectBoundingBox" gradientTransform="translate(0 0)">
            <stop id="ejUEibJlDQ05-fill-0" offset="0%" stop-color="#1f5fcc"/>
            <stop id="ejUEibJlDQ05-fill-1" offset="100%" stop-color="#8b6cff"/>
        </linearGradient>
        <linearGradient id="ejUEibJlDQ06-fill" x1="0" y1="0" x2="1" y2="1" spreadMethod="pad"
                        gradientUnits="objectBoundingBox" gradientTransform="translate(0 0)">
            <stop id="ejUEibJlDQ06-fill-0" offset="0%" stop-opacity=".5" stop-color="#0085db"/>
            <stop id="ejUEibJlDQ06-fill-1" offset="100%" stop-color="#0085db" />
        </linearGradient>
    </defs>
    <path d="M468,435q6.615-.149,13.232-.22q2.247-.03,4.493-.082c17.062-.387,17.062-.387,24.334,6.154l1.378,1.773c.474.59.947,1.18,1.434,1.79c2,2.808,2.257,4.577,2.27,7.979.005.924.01,1.847.017,2.8l.003,3.08.015,3.238q.021,5.325.027,10.648l.017,7.393q.015,7.764.02,15.528c.006,6.622.03,13.244.058,19.866.019,5.095.024,10.19.026,15.285q.004,3.66.024,7.32c.017,3.424.015,6.846.008,10.269l.028,3.037c-.037,6.254-1.042,11.348-3.384,17.142l-1,2.645c-5.864,12.713-16.632,22.658-29.625,27.668-8.355,2.973-16.497,2.806-25.264,2.734l-5.928-.028-6.342-.034c-5.179627-.025033-10.359315-.035033-15.539-.03h-9.259c-8.732,0-17.464-.017-26.196-.082q-10.429-.078-20.858-.042c-3.670722.016151-7.341516.001818-11.012-.043-18.16-.99-18.16-.99-34.14,6.1-1.669543,1.648943-3.2828,3.353919-4.837,5.112-1.215,1.012-2.45,2-3.719,2.945q-2.82,2.21-5.625,4.438c-2.89,1.76-4.338,2.073-7.656,1.617-1.613-1.613-1.13-3.355-1.134-5.587l-.013-3.004.002-3.323-.01-3.478q-.013-5.724-.013-11.448l-.01-7.918q-.009-8.31-.007-16.623-.001-9.616-.026-19.234c-.0135-6.15899-.0195-12.317995-.018-18.477q0-3.937-.013-7.874c-.01-3.664-.007-7.327,0-10.99-.007-1.095-.012-2.19-.018-3.318l.013-3.012-.002-2.628C304,502,304,502,306,500c2.89-.227,2.89-.227,6.54-.195l3.944.02l4.141.05q2.082.016,4.164.027q5.106.036,10.211.098l.078,3.875q.084,2.563.172,5.125l.043,2.543c.277,7.143,1.94,12.76,7.144,17.832c4.379,2.776,7.895,3.875,13.08,3.849l3.28.001l3.52-.022q3.72.015,7.443.035c3.895.01,7.789.012,11.684-.008c3.77-.015,7.54.008,11.31.036l3.477-.047c10.859.129,19.608,4.275,27.644,11.468l3,2.61l1.54,1.346c3.31,2.834,6.771,5.485,10.215,8.156c3.095114,2.394746,6.148897,4.84244,9.16,7.342l1.882,1.545q1.783,1.464,3.535,2.962c2.68,2.181,4.582,3.316,8.012,3.903c2.837-.29,2.837-.29,4.43-2.24c1.651-2.824,1.734-4.58,1.75-7.841l.038-3.408-.005-3.725.031-3.933c.028-3.555.037-7.11.043-10.666.01-3.717.036-7.434.06-11.15.042164-7.037282.07383-14.074623.095-21.112.027-8.012.071-16.024.117-24.036.093-16.48.164-32.96.222-49.44"
          transform="translate(-244.491 -376.371674)" fill="#0085db"/>
    <path d="M306.47,376.694q2.151-.011,4.301-.026c3.866-.021,7.731-.03,11.597-.035q3.63-.006,7.262-.017q12.69-.037,25.38-.042c7.863-.003,15.726-.033,23.589-.075q10.16-.051,20.319-.05c4.036-.002,8.071-.01,12.107-.039q5.692-.038,11.386-.012q2.08.003,4.157-.02c9.582-.105,17.154.99,24.537,7.47c6.374,6.4,8.96,13.639,9.048,22.587q-.016,2.982-.055,5.963l-.022,3.093c-.018309,2.503066-.043643,5.006076-.076,7.509l-1.667.01q-20.107.122-40.215.278-9.723.076-19.447.134-9.386.056-18.771.136-3.58.029-7.159.045c-3.344.017-6.688.046-10.032.078l-2.984.007c-6.692.081-13.149.397-18.475,4.937l-1.672,1.352c-4.66,5.975-5.037,12.727-5.09,19.992l-.054,2.79c-.054,2.914-.088,5.827-.121,8.741q-.05,2.98-.104,5.96c-.083661,4.846455-.153328,9.693142-.209,14.54l-2.826.044q-5.231.094-10.461.218-2.257.051-4.513.084c-2.173.034-4.344.087-6.516.142l-3.952.08c-6.648.77-11.423,3.166-15.732,8.432-3.892,6.73-3.477,13.65-3.512,21.246l-.054,4.14c-.047,3.612-.077,7.224-.104,10.835-.03,3.694-.076,7.388-.121,11.082-.086,7.232-.153,14.464-.209,21.697-3.979.117-7.957.188-11.937.25l-3.385.102c-7.986.093-14.831-.721-20.834-6.387l-1.344-2.028-1.406-2.035c-1.923-3.343-2.223-6.07-2.241-9.845l-.022-3.092-.008-3.39-.02-3.574q-.028-5.871-.041-11.743l-.013-4.055q-.029-9.536-.041-19.073c-.010279-7.312713-.035946-14.625395-.077-21.938q-.044-8.5-.048-17c-.002-3.377-.011-6.753-.036-10.13-.025-3.781-.024-7.562-.017-11.343l-.039-3.33c.102-15.33,5.975-28.146,16.31-39.287c13.344-12.752,27.817-15.402,45.67-15.408"
          transform="translate(-244.491 -376.371674)" fill="#0085db" opacity=".5"/>
    <path d="M364.878,441.66l2.794-.002c2.989.003,5.976.025,8.965.049q2.765.007,5.53.01c6.84.015,13.68.057,20.52.095L449,442v99c-6.733-4.488-6.733-4.488-9.55-6.805l-1.854-1.51-1.909-1.56c-13.086-10.53-22.496-15.553-39.66-15.602-5.029802-.067766-10.059836-.1171-15.09-.148q-5.767-.054-11.536-.123-3.579-.04-7.159-.063l-3.238-.031-2.863-.02C354,515,354,515,353,514c-.11-2.131-.15-4.266-.161-6.4l-.015-2.025q-.021-3.33-.027-6.66l-.017-4.616q-.015-4.845-.02-9.69c-.006-4.142-.03-8.283-.058-12.425-.019-3.18-.024-6.358-.026-9.538-.002962-1.526689-.010962-3.053364-.024-4.58-.01467-2.135635-.017336-4.271335-.008-6.407l-.011-3.685C353,445,353,445,354.28,443.337c3.04-2.363,6.902-1.724,10.598-1.678"
          transform="translate(-244.491 -376.371674)" fill="#0085db" opacity=".2"/>
</svg>
